<svg width="49" height="49" viewBox="0 0 49 49" fill="none" xmlns="http://www.w3.org/2000/svg">
<circle cx="24.5" cy="24.5" r="24.5" fill="#D9D9D9"/>
<path d="M27.4657 13.5471C27.4823 14.5906 27.0854 15.5983 26.3618 16.3494C25.6383 17.1006 24.647 17.5341 23.605 17.555C22.5614 17.5366 21.5677 17.1042 20.8421 16.3527C20.1165 15.6013 19.7183 14.5923 19.7349 13.5471C19.7207 12.5036 20.1199 11.497 20.8452 10.7476C21.5704 9.99811 22.5626 9.5669 23.6046 9.54829C24.6457 9.56702 25.6369 9.99857 26.3607 10.7482C27.0844 11.4979 27.4821 12.5045 27.4657 13.5471Z" fill="#243746"/>
<path d="M13.9487 12.2913C14.3143 10.9937 14.8903 9.76516 15.6537 8.65467C15.1993 10.7267 15.4935 12.8929 16.4841 14.7681C17.0731 15.9004 17.7746 16.9704 18.5781 17.9617C20.0799 19.7298 23.5167 22.2626 25.0204 23.5265L29.0767 26.7823C29.0767 26.7823 33.8211 30.4184 35.0933 34.5415C35.4865 36.1456 35.4865 37.8212 35.0933 39.4254C34.7175 40.7575 34.0775 42.0001 33.2117 43.0792C33.7868 41.0474 33.5624 38.8722 32.5846 37.0011C31.9857 35.8249 31.2725 34.7107 30.4553 33.6746C28.9143 32.0783 27.243 30.6133 25.459 29.2949L24.0455 28.2154L23.3296 27.6936C22.2321 26.906 20.0784 25.1723 20.0784 25.1723C20.0784 25.1723 15.2825 21.2973 14.0102 17.21C13.5907 15.5998 13.5696 13.9115 13.9487 12.2913Z" fill="#EB0045"/>
<path d="M31.7068 11.9639C31.9655 11.1551 32.0909 10.3095 32.0781 9.46036C32.0781 8.20404 31.7512 7.56703 30.551 6.40819C29.3509 5.24935 29.4277 5.39893 29.0564 4.7796C28.8335 4.30697 28.7221 3.7893 28.731 3.26666C28.2937 3.9278 28.0597 4.70292 28.0581 5.49593C28.0918 5.97031 28.2335 6.43067 28.4724 6.8417C28.7113 7.25273 29.041 7.60351 29.4363 7.86714C30.0713 8.33688 30.6371 8.89381 31.117 9.52153C31.5124 10.2743 31.7151 11.1135 31.7068 11.9639Z" fill="#243746"/>
<path d="M32.4752 9.54829C32.4752 9.54829 32.6518 12.114 30.5936 15.6526C28.6762 18.9882 23.6846 21.8903 23.6846 21.8903L26.8561 24.5004C28.9792 22.9035 30.7785 20.9156 32.1574 18.6432C33.0296 17.0646 33.4857 15.2895 33.4826 13.4855C33.4206 12.1177 33.0777 10.7774 32.4752 9.54829Z" fill="#243746"/>
<path d="M22.9688 27.9593L19.7968 25.4997C18.8075 26.6234 18.0668 27.944 17.6236 29.3747C17.2894 30.5234 17.1374 31.7175 17.1731 32.9134C17.2422 34.3377 17.5068 35.7456 17.9595 37.0976C17.8714 36.3323 17.949 35.557 18.1871 34.8244C18.4817 33.8997 18.8756 33.0098 19.362 32.1703C20.414 30.6446 21.6221 29.2331 22.9669 27.9588L22.9688 27.9593Z" fill="#243746"/>
<path d="M21.9615 43.0787C22.2971 42.1422 22.4646 41.1538 22.4564 40.1589C22.4326 39.5904 22.2879 39.0335 22.032 38.5254C21.776 38.0174 21.4148 37.5699 20.9723 37.2128C19.8504 36.0893 19.4882 35.6913 19.3202 35.158C19.1702 34.6971 19.084 34.2177 19.0639 33.7334C19.0639 33.7334 17.6061 36.5027 18.6822 38.2985C19.3291 39.3777 20.0872 40.3859 20.9441 41.3067C21.3609 41.8491 21.7031 42.4451 21.9615 43.0787Z" fill="#243746"/>
</svg>
