<svg width="53" height="97" viewBox="0 0 53 97" fill="none" xmlns="http://www.w3.org/2000/svg">
<path d="M33.9988 24.9887C34.0396 27.5953 33.0643 30.1122 31.2862 31.9885C29.5082 33.8648 27.0723 34.9476 24.5117 35C21.947 34.9538 19.5051 33.8737 17.7221 31.9968C15.939 30.1198 14.9604 27.5993 15.0012 24.9887C14.9664 22.3821 15.9474 19.8677 17.7296 17.9956C19.5118 16.1236 21.95 15.0465 24.5106 15C27.069 15.0468 29.5048 16.1247 31.2833 17.9974C33.0619 19.87 34.0392 22.3843 33.9988 24.9887Z" fill="white"/>
<path d="M0.65789 21.8738C1.55046 18.7076 2.95677 15.7097 4.82062 13C3.71104 18.0559 4.42936 23.3419 6.84781 27.9175C8.28576 30.6805 9.99851 33.2914 11.96 35.7103C15.6265 40.0248 24.0172 46.2049 27.6882 49.2892L37.5912 57.2336C37.5912 57.2336 49.1741 66.1062 52.2801 76.167C53.24 80.0814 53.24 84.1699 52.2801 88.0843C51.3626 91.3348 49.8002 94.367 47.6863 97C49.0904 92.0423 48.5425 86.7345 46.1555 82.1688C44.6933 79.2987 42.9521 76.5799 40.957 74.0518C37.1947 70.1565 33.1145 66.5818 28.7589 63.3648L25.308 60.7306L23.5605 59.4573C20.8808 57.5356 15.623 53.3051 15.623 53.3051C15.623 53.3051 3.91421 43.8495 0.808181 33.8761C-0.215939 29.947 -0.267526 25.8273 0.65789 21.8738Z" fill="#EB0045"/>
<path d="M44.0744 21C44.7178 19.0471 45.0296 17.0054 44.9978 14.955C44.9978 11.9215 44.1848 10.3835 41.2 7.58538C38.2151 4.78731 38.4062 5.14846 37.4828 3.65308C36.9283 2.51189 36.6513 1.26194 36.6734 0C35.5858 1.59636 35.004 3.46791 35 5.38269C35.0837 6.52811 35.4362 7.63966 36.0303 8.63211C36.6245 9.62456 37.4445 10.4715 38.4275 11.1081C40.0068 12.2423 41.4139 13.587 42.6075 15.1027C43.5908 16.9202 44.0948 18.9465 44.0744 21Z" fill="white"/>
<path d="M45.6352 15C45.6352 15 46.0497 21.349 41.2183 30.1056C36.7173 38.3596 25 45.541 25 45.541L32.4449 52C37.4287 48.0484 41.6524 43.129 44.8892 37.5058C46.9365 33.5996 48.0071 29.2071 48 24.7428C47.8544 21.3582 47.0494 18.0415 45.6352 15Z" fill="white"/>
<path d="M23 59.938L15.3445 54C12.9569 56.7128 11.1694 59.9011 10.0995 63.3553C9.29302 66.1284 8.92615 69.0112 9.0123 71.8983C9.17917 75.3368 9.81785 78.736 10.9103 82C10.6977 80.1523 10.8851 78.2805 11.4597 76.5119C12.1707 74.2796 13.1214 72.1311 14.2953 70.1043C16.8341 66.421 19.7499 63.0134 22.9954 59.9369L23 59.938Z" fill="white"/>
<path d="M19.8127 97C20.6172 94.6953 21.0189 92.2625 20.9993 89.814C20.9422 88.4147 20.5952 87.0441 19.9816 85.7937C19.3679 84.5434 18.5017 83.442 17.4408 82.5633C14.7507 79.7982 13.8822 78.8185 13.4794 77.506C13.1198 76.3716 12.9131 75.192 12.865 74C12.865 74 9.36936 80.8156 11.9496 85.2354C13.5007 87.8913 15.3186 90.3728 17.3732 92.639C18.3726 93.9739 19.1931 95.4407 19.8127 97Z" fill="white"/>
</svg>
