<svg width="276" height="276" viewBox="0 0 276 276" fill="none" xmlns="http://www.w3.org/2000/svg">
<circle cx="138" cy="138" r="138" fill="white"/>
<path d="M155.02 81.6684C155.116 87.725 152.813 93.5732 148.613 97.9329C144.414 102.293 138.66 104.809 132.612 104.93C126.555 104.823 120.788 102.314 116.576 97.9522C112.365 93.5909 110.054 87.7344 110.15 81.6684C110.068 75.6118 112.385 69.7693 116.594 65.4195C120.803 61.0697 126.562 58.5669 132.61 58.4589C138.652 58.5676 144.405 61.0724 148.606 65.4235C152.807 69.7747 155.115 75.617 155.02 81.6684Z" fill="#243746"/>
<path d="M76.564 74.3793C78.686 66.8483 82.0293 59.7176 86.4603 53.2722C83.8225 65.2982 85.5302 77.8713 91.2797 88.7548C94.6982 95.327 98.77 101.537 103.433 107.291C112.15 117.553 132.097 132.253 140.825 139.589L164.368 158.486C164.368 158.486 191.904 179.59 199.289 203.521C201.57 212.831 201.57 222.556 199.289 231.867C197.107 239.598 193.393 246.811 188.368 253.074C191.705 241.281 190.403 228.656 184.728 217.796C181.252 210.97 177.112 204.503 172.369 198.489C163.425 189.224 153.725 180.721 143.37 173.069L135.166 166.804L131.012 163.775C124.641 159.204 112.141 149.142 112.141 149.142C112.141 149.142 84.3055 126.65 76.9213 102.928C74.4866 93.5823 74.364 83.7831 76.564 74.3793Z" fill="#EB0045"/>
<path d="M179.634 72.4794C181.135 67.7851 181.863 62.8772 181.788 57.9486C181.788 50.6568 179.891 46.9596 172.925 40.2336C165.959 33.5076 166.405 34.3758 164.25 30.7812C162.956 28.038 162.31 25.0334 162.361 22C159.823 25.8373 158.465 30.3361 158.456 34.9388C158.651 37.6921 159.474 40.3641 160.861 42.7497C162.247 45.1353 164.161 47.1713 166.455 48.7014C170.141 51.4278 173.425 54.6602 176.21 58.3036C178.505 62.6725 179.681 67.5433 179.634 72.4794Z" fill="#243746"/>
<path d="M184.096 58.4589C184.096 58.4589 185.121 73.3504 173.175 93.8888C162.046 113.249 133.075 130.093 133.075 130.093L151.482 145.242C163.805 135.973 174.248 124.435 182.251 111.246C187.314 102.084 189.961 91.7814 189.943 81.3106C189.583 73.3719 187.593 65.5928 184.096 58.4589Z" fill="#243746"/>
<path d="M128.921 165.317L110.51 151.041C104.768 157.563 100.47 165.228 97.8967 173.533C95.9571 180.199 95.0748 187.13 95.282 194.071C95.6833 202.338 97.2193 210.51 99.8466 218.357C99.3352 213.915 99.7858 209.414 101.168 205.163C102.877 199.796 105.164 194.631 107.987 189.758C114.092 180.903 121.105 172.711 128.909 165.314L128.921 165.317Z" fill="#243746"/>
<path d="M123.069 253.071C125.016 247.636 125.989 241.899 125.941 236.124C125.803 232.824 124.963 229.592 123.478 226.643C121.992 223.695 119.895 221.097 117.327 219.025C110.816 212.504 108.714 210.194 107.739 207.099C106.868 204.424 106.368 201.642 106.251 198.831C106.251 198.831 97.7897 214.904 104.035 225.327C107.79 231.59 112.19 237.442 117.164 242.786C119.583 245.935 121.569 249.394 123.069 253.071Z" fill="#243746"/>
</svg>
